<svg xmlns="http://www.w3.org/2000/svg" width="800" height="600" viewBox="0 0 800 600" fill="none">
  <!-- Background elements -->
  <circle cx="400" cy="300" r="150" fill="#F0F5FF" />
  <path d="M300 350C300 350 350 400 400 400C450 400 500 350 500 350" stroke="#E5EDFF" stroke-width="10" />
  
  <!-- Number 4 -->
  <path d="M300 200V400M300 320H420" stroke="#0066FF" stroke-width="25" stroke-linecap="round" />
  <path d="M390 200L390 400" stroke="#0066FF" stroke-width="25" stroke-linecap="round" />
  
  <!-- Number 0 -->
  <circle cx="500" cy="300" r="100" stroke="#0066FF" stroke-width="25" />
  
  <!-- Number 4 -->
  <path d="M600 200V400M600 320H720" stroke="#0066FF" stroke-width="25" stroke-linecap="round" />
  <path d="M690 200L690 400" stroke="#0066FF" stroke-width="25" stroke-linecap="round" />
  
  <!-- Decorative elements -->
  <circle cx="200" cy="150" r="15" fill="#0066FF" opacity="0.6" />
  <circle cx="700" cy="400" r="10" fill="#0066FF" opacity="0.4" />
  <circle cx="150" cy="450" r="20" fill="#0066FF" opacity="0.3" />
  <circle cx="650" cy="100" r="25" fill="#0066FF" opacity="0.5" />
  
  <!-- Small details -->
  <path d="M100 250C120 270 150 280 180 260" stroke="#0066FF" stroke-width="5" stroke-linecap="round" />
  <path d="M700 200C680 220 650 230 620 210" stroke="#0066FF" stroke-width="5" stroke-linecap="round" />
</svg>